<?xml version="1.0" encoding="utf-8"?>
<!-- Generator: Adobe Illustrator 22.0.1, SVG Export Plug-In . SVG Version: 6.00 Build 0)  -->
<svg version="1.1" id="Layer_1" xmlns="http://www.w3.org/2000/svg" xmlns:xlink="http://www.w3.org/1999/xlink" x="0px" y="0px"
	 viewBox="0 0 681.6 122" style="enable-background:new 0 0 681.6 122;" xml:space="preserve">
<style type="text/css">
	.st0{fill:#144BA0;}
	.st1{fill:#FDFEFE;}
	.st2{fill-rule:evenodd;clip-rule:evenodd;fill:#144BA0;}
	.st3{fill-rule:evenodd;clip-rule:evenodd;fill:#5DC1E6;}
	.st4{fill-rule:evenodd;clip-rule:evenodd;fill:#1585BF;}
	.st5{fill-rule:evenodd;clip-rule:evenodd;fill:#FFFFFF;}
	.st6{fill-rule:evenodd;clip-rule:evenodd;fill:#CBDBE4;}
	.st7{stroke:#BE1E2D;stroke-width:3.7868;stroke-miterlimit:10;}
	.st8{fill:url(#SVGID_1_);}
	.st9{filter:url(#Adobe_OpacityMaskFilter);}
	.st10{mask:url(#SVGID_2_);}
	.st11{filter:url(#Adobe_OpacityMaskFilter_1_);}
	.st12{fill:#B31F24;}
	.st13{fill:url(#SVGID_3_);}
	.st14{filter:url(#Adobe_OpacityMaskFilter_2_);}
	.st15{mask:url(#SVGID_4_);}
	.st16{fill:#D04A27;}
	.st17{fill:url(#SVGID_5_);}
	.st18{filter:url(#Adobe_OpacityMaskFilter_3_);}
	.st19{mask:url(#SVGID_6_);}
	.st20{fill:#EFAB1F;}
	.st21{fill:url(#SVGID_7_);}
	.st22{filter:url(#Adobe_OpacityMaskFilter_4_);}
	.st23{mask:url(#SVGID_8_);}
	.st24{fill:#E5AB23;}
	.st25{fill:#FFFFFF;}
	.st26{fill:#F7F8F9;}
	.st27{fill:none;}
</style>
<g>
	<path class="st1" d="M153.7,76.9H146l-4-20.3h-0.1l-4,20.3H130l-8-29.4h7.7l4.2,21.5h0.1l4.3-21.5h7.2l4.3,21.5h0.1l4.2-21.5h7.7
		L153.7,76.9z"/>
	<path class="st1" d="M164.1,47.5h7v11h0.1c1.1-2.2,4-3.5,6.5-3.5c7.1,0,7.7,5.2,7.7,8.3v13.7h-7V66.6v-2.1c0-2.1-0.7-3.8-3.5-3.8
		c-2.6,0-3.8,2.3-3.8,4.6v11.7h-7V47.5z"/>
	<path class="st1" d="M197.4,52.8h-7v-5.4h7V52.8z M190.4,55.5h7v21.4h-7V55.5z"/>
	<path class="st1" d="M215.2,60h-4.3v9.7c0,1.7,1,2.1,2.5,2.1c0.6,0,1.2-0.1,1.8-0.1v5.2c-1.3,0-2.6,0.2-3.8,0.2
		c-6,0-7.5-1.8-7.5-7.5V60h-3.5v-4.5h3.5V49h7v6.5h4.3V60z"/>
	<path class="st1" d="M224.3,67.9c0.1,3,1.8,4.9,4.8,4.9c1.7,0,3.3-0.7,4-2.3h6.6c-1.3,4.9-5.9,7.1-10.6,7.1
		c-7,0-11.7-4.2-11.7-11.4c0-6.6,5.2-11.3,11.5-11.3c7.7,0,11.5,5.8,11.2,13H224.3z M233,64c-0.1-2.4-1.8-4.4-4.2-4.4
		c-2.5,0-4.1,1.7-4.5,4.4H233z"/>
	<path class="st1" d="M268.9,76.9h-7.1l-3.4-14.2h-0.1L255,76.9h-7.1l-6.7-21.4h7.1l3.6,13.9h0.1l3.1-13.9h6.7l3.1,13.8h0.1
		l3.5-13.8h7.1L268.9,76.9z"/>
	<path class="st1" d="M277.6,62.1c0.1-2.8,1.4-4.6,3.3-5.7c1.9-1.1,4.3-1.5,6.8-1.5c5.1,0,10,1.1,10,7.2v9.4c0,1.8,0,3.8,0.8,5.5h-7
		c-0.3-0.7-0.3-1.3-0.4-2c-1.8,1.9-4.5,2.6-7,2.6c-4.1,0-7.3-2.1-7.3-6.5c0-6.9,7.6-6.4,12.5-7.4c1.2-0.3,1.9-0.7,1.9-2
		c0-1.6-1.9-2.2-3.4-2.2c-2,0-3.2,0.9-3.5,2.7H277.6z M286.7,73.2c3.3,0,4.5-1.9,4.3-6.3c-1,0.6-2.8,0.7-4.3,1.2
		c-1.6,0.4-2.9,1-2.9,2.7C283.8,72.5,285.1,73.2,286.7,73.2z"/>
	<path class="st1" d="M315.3,60h-4.3v9.7c0,1.7,1,2.1,2.5,2.1c0.6,0,1.2-0.1,1.8-0.1v5.2c-1.3,0-2.6,0.2-3.8,0.2
		c-6,0-7.5-1.8-7.5-7.5V60h-3.5v-4.5h3.5V49h7v6.5h4.3V60z"/>
	<path class="st1" d="M324.4,67.9c0.1,3,1.8,4.9,4.8,4.9c1.7,0,3.3-0.7,4-2.3h6.6c-1.3,4.9-5.9,7.1-10.6,7.1
		c-7,0-11.7-4.2-11.7-11.4c0-6.6,5.2-11.3,11.5-11.3c7.7,0,11.5,5.8,11.2,13H324.4z M333.1,64c-0.1-2.4-1.8-4.4-4.2-4.4
		c-2.5,0-4.1,1.7-4.5,4.4H333.1z"/>
	<path class="st1" d="M343.8,55.5h6.8v3.8h0.1c1-2.8,3.4-4.2,6.4-4.2c0.5,0,1.1,0,1.6,0.2v6.4c-0.9-0.3-1.7-0.4-2.7-0.4
		c-3.5,0-5.3,2.4-5.3,5.1v10.6h-7V55.5z"/>
	<path class="st1" d="M374.4,47.5h21.7v6.1h-14v6h12.1v5.9h-12.1v11.3h-7.7V47.5z"/>
	<path class="st1" d="M406.6,52.8h-7v-5.4h7V52.8z M399.6,55.5h7v21.4h-7V55.5z"/>
	<path class="st1" d="M411.8,55.5h6.8v3.8h0.1c1-2.8,3.4-4.2,6.4-4.2c0.5,0,1.1,0,1.6,0.2v6.4c-0.9-0.3-1.7-0.4-2.7-0.4
		c-3.5,0-5.3,2.4-5.3,5.1v10.6h-7V55.5z"/>
	<path class="st1" d="M434.3,67.9c0.1,3,1.8,4.9,4.8,4.9c1.7,0,3.3-0.7,4-2.3h6.6c-1.3,4.9-5.9,7.1-10.6,7.1
		c-7,0-11.7-4.2-11.7-11.4c0-6.6,5.2-11.3,11.5-11.3c7.7,0,11.5,5.8,11.2,13H434.3z M443,64c-0.1-2.4-1.8-4.4-4.2-4.4
		c-2.5,0-4.1,1.7-4.5,4.4H443z"/>
	<path class="st1" d="M466.8,47.5h14c5.5,0,10.6,2.5,10.6,9.5c0,7.3-4.2,10.1-10.6,10.1h-6.3v9.8h-7.7V47.5z M474.5,61.2h5.2
		c2.4,0,4.1-1,4.1-3.7c0-2.8-1.8-3.9-4.1-3.9h-5.2V61.2z"/>
	<path class="st1" d="M495,55.5h6.8v3.8h0.1c1-2.8,3.4-4.2,6.4-4.2c0.5,0,1.1,0,1.6,0.2v6.4c-0.9-0.3-1.7-0.4-2.7-0.4
		c-3.5,0-5.3,2.4-5.3,5.1v10.6h-7V55.5z"/>
	<path class="st1" d="M521.8,54.9c6.6,0,11.3,4.9,11.3,11.3s-4.7,11.3-11.3,11.3s-11.3-4.9-11.3-11.3S515.2,54.9,521.8,54.9z
		 M521.8,72.2c3.3,0,4.3-3.2,4.3-5.9c0-2.7-1-6-4.3-6c-3.3,0-4.2,3.3-4.2,6C517.6,69,518.6,72.2,521.8,72.2z"/>
	<path class="st1" d="M549.7,60h-4.3v9.7c0,1.7,1,2.1,2.5,2.1c0.6,0,1.2-0.1,1.8-0.1v5.2c-1.3,0-2.6,0.2-3.8,0.2
		c-6,0-7.5-1.8-7.5-7.5V60h-3.5v-4.5h3.5V49h7v6.5h4.3V60z"/>
	<path class="st1" d="M558.8,67.9c0.1,3,1.8,4.9,4.8,4.9c1.7,0,3.3-0.7,4-2.3h6.6c-1.3,4.9-5.9,7.1-10.6,7.1
		c-7,0-11.7-4.2-11.7-11.4c0-6.6,5.2-11.3,11.5-11.3c7.7,0,11.5,5.8,11.2,13H558.8z M567.5,64c-0.1-2.4-1.8-4.4-4.2-4.4
		c-2.5,0-4.1,1.7-4.5,4.4H567.5z"/>
	<path class="st1" d="M592,63.3c0-1.8-1.6-3.1-3.4-3.1c-3.9,0-4.5,3.3-4.5,6.3c0,2.8,1.2,5.6,4.2,5.6c2.5,0,3.7-1.4,4-3.7h6.8
		c-0.7,5.8-5,9-10.8,9c-6.4,0-11.2-4.4-11.2-11c0-6.8,4.3-11.7,11.2-11.7c5.4,0,10,2.8,10.6,8.5H592z"/>
	<path class="st1" d="M615.4,60H611v9.7c0,1.7,1,2.1,2.5,2.1c0.6,0,1.2-0.1,1.8-0.1v5.2c-1.3,0-2.6,0.2-3.8,0.2
		c-6,0-7.5-1.8-7.5-7.5V60h-3.5v-4.5h3.5V49h7v6.5h4.3V60z"/>
	<path class="st1" d="M625.8,52.8h-7v-5.4h7V52.8z M618.8,55.5h7v21.4h-7V55.5z"/>
	<path class="st1" d="M640.9,54.9c6.6,0,11.3,4.9,11.3,11.3s-4.7,11.3-11.3,11.3s-11.3-4.9-11.3-11.3S634.3,54.9,640.9,54.9z
		 M640.9,72.2c3.3,0,4.3-3.2,4.3-5.9c0-2.7-1-6-4.3-6c-3.3,0-4.2,3.3-4.2,6C636.7,69,637.7,72.2,640.9,72.2z"/>
	<path class="st1" d="M655.9,55.5h6.8v2.9h0.1c1.3-2.2,4.2-3.5,6.7-3.5c7.1,0,7.7,5.2,7.7,8.3v13.7h-7V66.6v-2.1
		c0-2.1-0.7-3.8-3.5-3.8c-2.6,0-3.8,2.3-3.8,4.6v11.7h-7V55.5z"/>
</g>
<g>
	<g>
		<path class="st2" d="M69.5,26.5c-0.5-0.4-1-0.8-1.4-1.3c-0.6-0.7-1.3-1.6-2.1-2.3l-0.5,0.5c-0.2,0.2-0.7,0.8-0.6,1.2
			c0,0.2,0.3,0.3,0.5,0.4C66.7,25.5,68.1,26,69.5,26.5 M37.7,59.1c2.9,22,13.3,26.6,20,27.8c15.6,2.9,22.7,14.2,39.3-3.8
			c0.2-0.2,5.9-4.3,9-8.6c-1.1,1.6,0.4-1.9,0,0c-1.2,6.2-2.8,10.7-6.9,15.9c-9.6,12.4-24.9,20.1-40.6,20.1
			C30.7,110.6,7.5,87.8,7.5,60c0-15.1,7-30.5,18.9-39.7c8.1-6.3,19.3-9.6,29.5-8.9c2.1,0.1,4.4,0.4,6.5,0.9c0.9,0.2,4,1.1,3.9,2.4
			c-0.1,0.8-1,1.1-1.8,1.2c0,0,0,0,0,0c3.5,0.7,7.8,3.1,9.3,6.5c0.6,1.5,0.5,3.5-1,4.4c-0.5,0.3-1.1,0.5-1.7,0.4
			c0.3,0.1,0.7,0.3,1,0.4c2.2,0.9,4.3,3,5.8,5.4c1,1.6,3.9,9.3,0.1,9.9c-0.5,0.1-1.3-0.2-1.9-1.1c-0.5-0.8-0.7-1.6-0.8-2.5
			c-0.1-0.6,0-1.3-0.1-1.9c-0.1-0.9-0.3-1.7-1-2.2c-0.6-0.5-1.5-1-2.2-1.2c-0.1,0-0.6-0.1-0.7,0c-0.1,0.1-0.1,0.3,0,0.3
			c0,0.3,0.2,0.7,0.3,0.9c0.3,0.5,0.4,1,0.7,1.6c0.9,1.8,1.3,3.6,1.3,5.6c0,1.5-0.1,3.1-1,4.4c-0.6,0.9-2,2.1-3.2,1.8
			c-0.7-0.2-1.2-0.7-1.4-1.4c-0.1-0.4-0.2-0.7-0.2-1.1c0-1,0.3-1.9,0.4-2.8c0.1-0.8,0.5-1.9,0.1-2.6c-0.5-0.7-1.4-2-2.4-2.3
			c0.1,0.6,0.5,1.8,0.6,2.1c0.6,2.1,0.6,4.7-1.5,6c-1.2,0.8-2.4,0.6-3.3-0.4c-0.1-0.1-0.2-0.3-0.3-0.5c-0.6-4.7-5.8-7.4-12.4-4.3
			C41.8,44.8,36.7,51.6,37.7,59.1z"/>
		<path class="st3" d="M9.8,59.7c0,27.3,22.1,49.4,49.4,49.4c15.9,0,30.1-7.5,39.1-19.2c-2.3,1.7-6.2,3.5-8.6,4.4
			c-2.9,1.1-6.3,1.1-11.8,0.8c-5.5-0.3-10.2-3.9-12.4-4.8c-2.3-1-3,0.5-12.6-0.7c-9.6-1.2-14.2-11.8-14.2-11.8s0,0,0.5,1.5
			c0.5,1.5,2.9,6.8,5.6,9.6c2.7,2.8,9.9,6.6,9.9,6.6S52,95.4,47.3,92C42.6,88.6,35,77.9,35.5,63.4c0.2-6.9,2.4-12.6,5.4-16.8
			c0.8-1.1,1.8-2.2,2.9-3.3l0,0c0.9-2.1,0.4-2.9-3.3,0.3c-5.6,4.9-7.1,16.4-7.1,21.9c0,5.5-4.2,0.2-2.6-8c1.5-8.2,0.1-8.8-2-4.9
			c-2.1,3.9-2.5,9-1.7,14.5c0.8,5.5,5.9,14.3,3.3,11.3c-2.5-3-2.2-3.6-3.2-5.2c0.2,0.5-0.5-0.6,0.3,1.7c0.8,2.3,3.4,4.8,3,6.4
			c-0.4,1.5-1.7-2.5-4.4-2.3c-2.7,0.2,0.2,6.7,8.6,15c8.3,8.3,21.2,12.2,21.2,12.2c-13.4,0.6-28.9-18.7-31-23.5
			c-2.1-4.9,2-5.3,3.1-4.3c1.1,1.1-1.5-2.6-5-13.1c-3.4-10.5-1.7-15.9-1-18.1c0.7-2.1,2-3.8,3.2-4c1.2-0.2,0.2,2.9,0.4,4.3
			c0.1,1.4,1.4-2.3,2.4-3.9c1.5-2.7,3.5-4.8,5.8-6.4c3.6-2.5,7.9-3.8,12.6-4.3c4.9-0.5,9.7,0.4,13,3c2.9,2.3,3.4,6.1,3.2,9.1
			c0.5,0.9,1.3,1.2,2.3,0.6c1.5-1,1.7-2.9,1.1-4.9c-0.6-2-1.1-3.3-0.2-3.3c0.9-0.1,2.3,0.5,3.7,2.7c1.4,2.3-0.6,4.3,0.1,6.2
			c0.7,2,3.5,0.6,3.6-4.1c0.1-4.7-2.4-6.4-2.6-8c-0.1-1.7,1.7-2,4.5,0.1c2.7,2.1,0.9,4,2.4,6.6c1.5,2.6,2.4-2.6,0.5-6.5
			c-0.6-1.3-2.1-3.1-3.5-4.4c-2.5-2.3-6.3-3.1-9.4-4.3c-2.3-0.9-0.1-3-0.1-3s-1.2-0.8-2.3-0.4c-1.1,0.4-1.4,1.5-1,2.4
			c0.4,0.9,2.3,3,2.3,3s-2.3-1.3-3-2.6c-0.7-1.3,0.1-3.2,2.1-3.8c2-0.6,3-0.1,5.8,3.3c2.9,3.4,5.5,0.8,4.3-1.9
			c-1.2-2.7-5.8-5.2-9.6-5.9c-3.8-0.7-4.6-1.5-0.5-1.8c3.5-0.2,0.6-1.8-7-2.3c-10.5-0.7-19.9,2.6-27.5,8.5C17,30,9.8,44.6,9.8,59.7"
			/>
		<path class="st4" d="M99.1,88.5c0,0,3.6-4.6,4.6-8.3c1.1-3.7,1.8-8,1.8-8S96,86,85.8,88.7c-10.2,2.7-29.1,0.2-35.7-6.4
			c-6.5-6.7-9-10.6-10.7-16.3c-1.7-5.7-1.9-9.3-1.9-9.3s-0.6,5.3-0.1,11.3c0.5,5.9,5.5,14.6,10.2,18.1c4.8,3.4,17,3.1,17,3.1
			s1.8,0.1,2.7,1.1C68.3,91.2,85.8,98.6,99.1,88.5"/>
		<path class="st5" d="M71.4,96c-0.5,0.3-0.4,0.8,0.3,1.6c1.3,1.4-2.9,1.1-5.7-0.6c-2.9-1.7-3.1-4.4-5.5-3.7c-2.4,0.7-1.6,2.7-5.6,1
			c-1.8-0.8-3.6-1.1-5.3-1.7C47.8,91.4,46,90.1,45,89c-2.7-2.8-5-8.1-5.6-9.6c-0.5-1.5-0.5-1.5-0.5-1.5S43.5,88.4,53,89.6
			c9.6,1.2,10.3-0.2,12.6,0.7c1.4,0.6,3.7,2.2,6.6,3.4c0.1,0,0.1,0,0.2,0.1l0,0c0.1,0,0.2,0.1,0.2,0.1l0,0c0,0,0.1,0,0.2,0.1l0.1,0
			l0,0c0.1,0,0.1,0,0.2,0.1l0,0c0.1,0,0.1,0,0.2,0.1l0.1,0l0.1,0l0.1,0l0.1,0c0,0,0.1,0,0.1,0l0.1,0c0,0,0.1,0,0.1,0l0.1,0
			c0,0,0.1,0,0.1,0l0.1,0c0.1,0,0.1,0,0.2,0.1l0.1,0c0.1,0,0.1,0,0.2,0l0.1,0c0.1,0,0.1,0,0.2,0l0.1,0c0.1,0,0.1,0,0.2,0l0,0
			c0.1,0,0.1,0,0.2,0l0,0c0.1,0,0.1,0,0.2,0l0,0c0.1,0,0.1,0,0.2,0l0,0c0.1,0,0.1,0,0.2,0l0,0c0.1,0,0.2,0,0.2,0l0,0
			c0.1,0,0.2,0,0.2,0l0,0c0.1,0,0.2,0,0.2,0l0,0c0.2,0,0.3,0,0.5,0.1h0c0.1,0,0.2,0,0.2,0l0,0c0.1,0,0.2,0,0.3,0l0,0l0,0l0,0l0,0
			l0,0l0,0l0,0l0,0h0l0,0l0,0l0,0l0,0l0,0l0,0l0,0l0,0h0l0,0l0,0l0,0l0,0l0,0l0,0l0,0l0,0l0,0l0,0l0,0l0,0l0,0l0,0l0,0l0,0l0.1,0
			l0,0l0,0l0,0l0,0l0,0l0,0l0,0l0,0l0,0l0,0l0,0l0,0l0,0l0,0l0,0l0.1,0l0,0l0,0l0,0l0,0l0,0l0,0l0,0l0,0l0,0l0,0l0,0l0,0l0,0l0,0
			l0,0c4.4,0.2,7.3,0.1,9.9-0.9c2.4-0.9,6.3-2.8,8.6-4.4c-0.9,1.1-1.8,2.3-2.8,3.3c-0.5,0.3-1.2,0.6-1.9,1.1c-2.9,1.5-8.7,3.3-15,3
			C75.8,97.1,73.2,96.5,71.4,96"/>
		<path class="st2" d="M28.7,67.3c-0.1-2.6,1-0.9,2.3,2.6c0.4,1.2,0.9,2.5,1.4,4c1.9,5.8,6.3,14.6,13,19.7c6.7,5.1-1.5,1.9-7.7-5.6
			c-2.1-2.5-3.5-4.9-4.6-7C31.7,78.2,28.8,70.5,28.7,67.3"/>
		<path class="st4" d="M30.5,80.9c1.1,1.3,2.6,3.2,3.7,5.6c2,4.4,11.6,11.6,16.6,13.4c5,1.8,1.1,1.5-2.5,0.6
			c-3.6-1,3.2,3.9,10.2,4.9c5,0.7,11.3,1.3,17.8,0.8c-3.6,1.3-7.4,2.2-11.3,2.7c-3.4-0.5-7.2-1.3-10.9-2.5c0.6,0,1.1,0.1,1.7,0
			c0,0-12.8-3.9-21.2-12.2c-8.3-8.3-11.3-14.7-8.6-15c2.7-0.2,4,3.8,4.4,2.3C30.5,81.2,30.6,81,30.5,80.9"/>
		<path class="st4" d="M35.5,63.6c0,0,0-0.1,0-0.1c-3.6-8.6,8.7-23,5-19.7c-5.6,4.9-7.1,16.4-7.1,21.9c0,5.5-4.2,0.2-2.6-8
			c1.5-8.2,0.1-8.8-2-4.9c-2.1,3.9-2.5,9-1.7,14.5c0.4,2.3,1.5,5.3,2.4,7.6c0.6,0.8,1.3,1.5,1.8,2c-1.3-3.3-2.6-7.4-2.6-9.6
			c0-0.4,0-0.7,0-0.9c-0.2-1.6-0.2-2.9,0.3-2.4c1,0.8,2,3.4,2.9,4.9c0.8,1.4,2.4,3.9,2.4,0.4C34.3,67.5,34.9,65.3,35.5,63.6
			 M21.4,39.7c1.1-3-2.6-0.2-1.3-4.4c1-3,0.3-4.4-2.4-0.3c-6.5,10-8.3,27.3-5.9,38.6c6,20.6,25,35.6,47.5,35.6
			c2.7,0,5.4-0.2,8.1-0.7L56.1,106c0,0-0.4,0-1.2,0c0.6,0.2,1,0.3,1,0.3c-1.7,0.1-3.4-0.2-5.1-0.7c-2.4-0.3-5.3-1-8.4-2.3
			c-7.2-3.1-14.4-12.2-17.5-16.5c-3.1-4.3-2.9-10-0.8-10.1c2-0.1-0.1-1.8-3.6-9.4c-3.4-7.6-1.9-16.6-1.9-16.6
			C16,45.6,20.3,42.6,21.4,39.7z"/>
		<path class="st5" d="M51.8,95.3c0,0-7.4-2.4-11.5-10.7c-4.2-8.3-4.4-12.1-4.8-11.2c-0.4,0.9,0.9,7.1,2.6,10.5
			C39.8,87.2,44.8,93.8,51.8,95.3"/>
		<path class="st4" d="M96.2,92.5L96.2,92.5c-0.2,0.2-0.4,0.5-0.6,0.7c-0.5,0.3-1.2,0.6-1.9,1.1c-2.9,1.5-8.7,3.3-15,3
			c-2.9-0.2-5.4-0.7-7.3-1.3c-0.5,0.3-0.4,0.8,0.3,1.6c1.3,1.4-2.9,1.1-5.7-0.6c-2.1-1.2-2.8-3.1-4-3.6c-0.5,0.9-0.4,2.4,0.5,4
			c1,1.8,3.7,4,1.7,4c-2-0.1-3.8-0.3-2.7,0.9c1.1,1.2,6.8,2.1,10.6,2.5c3.1,0.3,5.8,0.2,8.1,0c1.4-0.6,2.7-1.3,4-2.1
			c-3.4,0.5-8.2,1.1-10.9,0.6c-4.3-0.8-7.9-3.8-5.5-3.3c2.4,0.5,5,2.3,10,1.7c3.2-0.4,7.2-0.8,9.7-1C90.6,98.1,93.6,95.5,96.2,92.5"
			/>
		<path class="st5" d="M21.6,35.4c0.8,0.8,2.7-0.2,2.2,1.6c-0.5,2.1-2,3.9-2.9,6.9c-0.9,3-0.1,2.4-0.7,4.7
			c-0.5,2.3-1.6,8.4-0.2,13.9c1.4,5.5,4,9.4,4.9,11.6c0.9,2.1,1.1,2.8-0.3,3.3c-1.4,0.5-2.3,4.1,0.3,8.6c2.6,4.5,8.2,10.3,11.3,12.5
			c1.7,1.2,4.3,2.4,6.3,3.2c-8.9-5.9-16.4-15.7-17.9-19c-2.1-4.9,2-5.3,3.1-4.3c1.1,1.1-1.5-2.6-5-13.1c-3.4-10.5-1.7-15.9-1-18.1
			c0.7-2.1,2-3.8,3.2-4c1.2-0.2,0.2,2.9,0.4,4.3c0.1,1.4,1.4-2.3,2.4-3.9c1.5-2.7,3.5-4.8,5.8-6.4c3.6-2.5,7.9-3.8,12.6-4.3
			c4.9-0.5,9.7,0.4,13,3c2.9,2.3,3.4,6.1,3.2,9.1c0.5,0.9,1.3,1.2,2.3,0.6c1.5-1,1.7-2.9,1.1-4.9c-0.6-2-1.1-3.3-0.2-3.3
			c0.9-0.1,2.3,0.5,3.7,2.7c1.4,2.3-0.6,4.3,0.1,6.2c0.7,2,3.5,0.6,3.6-4.1c0.1-4.7-2.4-6.4-2.6-8c-0.1-1.7,1.7-2,4.5,0.1
			c2.7,2.1,0.9,4,2.4,6.6c1.5,2.6,2.4-2.6,0.5-6.5c-0.6-1.3-2.1-3.1-3.5-4.4c-2.5-2.3-6.3-3.1-9.4-4.3c-2.3-0.9-0.1-3-0.1-3
			s-1.2-0.8-2.3-0.4c-1.1,0.4-1.4,1.5-1,2.4c0.4,0.9,2.3,3,2.3,3s-2.3-1.3-3-2.6c-0.7-1.3,0.1-3.2,2.1-3.8c2-0.6,3-0.1,5.8,3.3
			c2.9,3.4,5.5,0.8,4.3-1.9c-1.2-2.7-5.8-5.2-9.6-5.9c-3.8-0.7-4.6-1.5-0.5-1.8c3.5-0.2,0.6-1.8-7-2.3c-10.5-0.7-19.9,2.6-27.5,8.5
			c-6,4.7-10.9,11-14.1,18.1c1.7-3,3.5-6.2,4.8-7.4c2.7-2.5,4.2-1.9,3.5-0.2c-0.7,1.7-0.9,2-1,3.3C21.6,35.1,21.6,35.3,21.6,35.4"/>
		<path class="st5" d="M46.1,79.9c4.2,4.6,1.3,2,5.6,4.3l1.6,1.6c0,0,6.3,2.6,9.1,3.4c1.4,0,2.4,0,2.4,0s1.8,0.1,2.7,1.1
			c0.4,0.4,3.2,1.7,7.3,2.6c4.9-0.3,16.6-2.1,29-12.5c0-0.1,0-0.1,0-0.2c1.1-3.7,2.3-9.4,2.3-9.4s-11.8,13.9-22,16.9
			c-9.4,2.8-26.3,0.4-34-5.4c-7.4-5.6-9-10.6-10.7-16.3c-1.7-5.7-2.2-2.7-2.2-2.7c0.5,9.4,1.2,9.7,8.1,17.3"/>
		<path class="st0" d="M38.2,52.4c0,0.7-0.1,1.5-0.1,2.2c0,18.4,15.5,33.4,34,33.4c18.4,0,33.4-15,33.4-33.4c0-0.3,0-0.6,0-0.9
			l2.8-2.1c0.1,1.3,0.9,1.7,0.9,3c0,20.5-16.7,37.1-37.1,37.1c-20.5,0-37.7-16.7-37.7-37.1c0-1.7,0.1-3.4,0.4-5.1L38.2,52.4z"/>
		<path class="st6" d="M61.6,16.3c-2.1-0.6-2-1.2,1.4-1.4c1-0.1,1.5-0.2,1.5-0.5c-4.4-0.3-8.3,0.9-8.1,1.5
			C56.5,16.6,60,16.4,61.6,16.3 M70.5,34.3c-0.1-1.7,1.7-2,4.5,0.1c2.7,2.1,0.9,4,2.4,6.6c0.1,0.2,0.2,0.3,0.3,0.4
			c-0.5-0.7-0.5-1.9-0.5-3.2c0-1.8,0.1-2.3-1.8-4.8c-1.9-2.5-7-3.3-8.6-1.9c-1.4,1.3,1.2,2.1,3.7,3.3C70.5,34.7,70.5,34.5,70.5,34.3
			z M65.7,37.5c0.9-0.1,2.3,0.5,3.7,2.7c1.4,2.3-0.6,4.3,0.1,6.2c0.5,1.3,1.8,1.1,2.7-0.3c-1,0-1.9-0.6-1.6-1.8
			c0.7-2.7,0.5-3.1-0.8-6.2c-1.3-3.1-5.7-3.7-4.9-0.8c0.1,0.4,0.2,0.7,0.3,0.9C65.2,37.8,65.3,37.5,65.7,37.5z M66.4,20.8
			c4.2,2.6,3.2,4.5,5.2,4.8c0.4,0,0.8,0.1,1.2,0c-0.8,1-2.4,1-4.1-1c-2.9-3.4-3.8-3.9-5.8-3.3c-2,0.6-2.9,2.5-2.1,3.8
			c0.7,1.3,3,2.6,3,2.6s-1.9-2.1-2.3-3c-0.4-0.9-0.1-2,1-2.4c1.1-0.4,2.3,0.4,2.3,0.4s-2.1,2.1,0.1,3c0.5,0.2,1.1,0.4,1.6,0.6
			c-0.8,0.1-2.1,0.3-1.9,1.4c0.2,1.5-3.2,0.2-4.6-2.1c-0.5-0.9-0.4-2.1,0.2-3.2c-0.4-0.1-1.4,0-1.9,1.2c-0.7,1.7,0.4,2.9,0.4,2.9
			s-0.8-0.5-1.4-1.6c-0.6-1.1-0.4-3.5,1.9-4.3C61.1,19.9,64.7,19.7,66.4,20.8z M25.2,43.3c1.2-0.2,0.2,2.9,0.4,4.3
			c0.1,1.4,1.4-2.3,2.4-3.9c1.5-2.7,3.5-4.8,5.8-6.4c3.6-2.5,7.9-3.8,12.6-4.3c4.9-0.5,9.7,0.4,13,3c2.9,2.3,3.4,6.1,3.2,9.1
			c0.5,0.9,1.3,1.2,2.3,0.6c0.5-0.3,0.8-0.7,1-1.1c-0.7-0.4-1.7-1.8-2.7-4.7c-1.8-5.1-5.5-7.6-9.7-8.5c2.1,0.1,5.3,0.6,6.6,1.4
			c2.4,1.5,2.2-2-5.5-3.5c-14.6-2.9-27.7,2.8-31.6,16.3C23.5,44.4,24.3,43.5,25.2,43.3z"/>
		<path class="st6" d="M64.9,90.1c-0.2,0.1-0.4,0.3-0.7,0.5c-1.2,1.1-1.9,1.9-2.2,2.8c1.2,0.6,1.8,2.4,3.9,3.6c2.9,1.7,7,2,5.7,0.6
			c-0.7-0.7-0.8-1.3-0.3-1.6c1.9,0.6,4.4,1.2,7.3,1.3c6.3,0.4,12.1-1.4,15-3c0.8-0.4,1.4-0.8,1.9-1.1c1-1.1,1.9-2.2,2.8-3.3
			c-2.3,1.7-6.2,3.5-8.6,4.4c-2.6,1-5.5,1.1-9.9,0.9l0,0l0,0l0,0l0,0l0,0l0,0l0,0l0,0l0,0l0,0l0,0l0,0l0,0l0,0l0,0l-0.1,0l0,0l0,0
			l0,0l0,0l0,0l0,0l0,0l0,0l0,0l0,0l0,0l0,0l0,0l0,0l0,0l-0.1,0l0,0l0,0l0,0l0,0l0,0l0,0l0,0l0,0l0,0l0,0l0,0l0,0l0,0l0,0l0,0l0,0h0
			l0,0l0,0l0,0l0,0l0,0l0,0l0,0l0,0h0l0,0l0,0l0,0l0,0l0,0l0,0l0,0l0,0c-0.1,0-0.2,0-0.3,0l0,0c-0.1,0-0.2,0-0.2,0h0
			c-0.2,0-0.3,0-0.5-0.1l0,0c-0.1,0-0.2,0-0.2,0l0,0c-0.1,0-0.2,0-0.2,0l0,0c-0.1,0-0.2,0-0.2,0l0,0c-0.1,0-0.1,0-0.2,0l0,0
			c-0.1,0-0.1,0-0.2,0l0,0c-0.1,0-0.1,0-0.2,0l0,0c-0.1,0-0.1,0-0.2,0l0,0c-0.1,0-0.1,0-0.2,0l-0.1,0c-0.1,0-0.1,0-0.2,0l-0.1,0
			c-0.1,0-0.1,0-0.2,0l-0.1,0c-0.1,0-0.1,0-0.2-0.1l-0.1,0c0,0-0.1,0-0.1,0l-0.1,0c0,0-0.1,0-0.1,0l-0.1,0c0,0-0.1,0-0.1,0l-0.1,0
			l-0.1,0l-0.1,0l-0.1,0c-0.1,0-0.1,0-0.2-0.1l0,0c-0.1,0-0.1,0-0.2-0.1l0,0l-0.1,0c0,0-0.1,0-0.2-0.1l0,0c-0.1,0-0.2-0.1-0.2-0.1
			l0,0c-0.1,0-0.1,0-0.2-0.1c-2.9-1.2-5.2-2.8-6.6-3.4C65.4,90.2,65.1,90.1,64.9,90.1"/>
		<path class="st2" d="M70.4,52.6c0,0,1.8,1.7,1.8,4.9c0,3.1-1.7,3.9-3.6,3.6c-1.9-0.3-1.5-3-0.8-4C68.6,56.1,70.3,53.2,70.4,52.6"
			/>
		<path class="st6" d="M70.5,54.4c0,0,1.4,1.7,0.9,4.1c-0.5,2.3-4.1,2.7-3.2,0.3C69.1,56.4,69.3,57.3,70.5,54.4"/>
		<path class="st5" d="M70.6,54.6c0,0.3-0.1,0.6-0.2,1c-0.5,1.1-1.2,1.7-1.5,3.1c-0.2,0.8,0.1,1.5,0.7,1.8c0.8-0.2,1.7-0.8,1.9-1.9
			C71.8,56.6,70.9,55,70.6,54.6"/>
		<path class="st2" d="M79.7,28.7c0,0,2.1-0.3,4.1,1.3c2,1.6,1.7,3.1,0.5,4.2c-1.2,1.1-2.7-0.6-3-1.6C81,31.7,80,29.1,79.7,28.7"/>
		<path class="st6" d="M81.1,29.7c0,0,1.7,0,2.9,1.4c1.2,1.4-0.3,3.8-1.3,2.1C81.5,31.5,82.2,31.8,81.1,29.7"/>
		<path class="st5" d="M81.2,29.7c0.2,0.1,0.3,0.3,0.5,0.6c0.4,0.8,0.5,1.5,1.1,2.4c0.4,0.5,1,0.6,1.4,0.5c0.3-0.6,0.3-1.4-0.2-2
			C83,30,81.6,29.8,81.2,29.7"/>
		<path class="st5" d="M60.3,95c0,0-1.4,0.4-1.2,1.8c0.1,1.5,1,2.7-1,2.3c-2-0.4-2.8-2-5.3-1.5c-2.5,0.5-3.8-0.1-4.9-0.6
			c-1.1-0.5-0.4,0.7,2.1,1.7c2.4,0.9,5.6,2.3,4.2,2.8c-1.4,0.5-4.1-0.4-3.1,0.4c1,0.8,3,1.5,6.6,2.2c3.6,0.7,7.6,1,8.2,0.7
			c0.6-0.3-2.7-0.3-4.7-1.7c-2-1.4-1.7-2.8-0.4-2.8c1.3,0,2.6,0.7,2.1-0.2C62.4,99.2,60.7,96.4,60.3,95"/>
		<path class="st7" d="M82.9,49.6c-1.1,2-2.7,2.2-4,2.7c-3.2,1.2-1.4,3.9,1.2,3.3c3.2-0.8,6-4.3,7.6-8c0.8,5.3-2.9,10.6-6.4,12.5
			c-2.8,1.5-7.7,2.7-8.6,6.1c-0.7,2.7,1.9,5.2,3.8,2.4c1.4-2,2.6-5.3,6.2-6.7c-2.1,2.5-0.6,8.6-2.9,14.6c-1.9,5-9,11.5-21.9,5.5
			c2.4-4-10.9-17.8-0.5-27.7C64.4,47.6,79.5,52.1,82.9,49.6z"/>
		
			<radialGradient id="SVGID_1_" cx="-209.0642" cy="194.4195" r="42.259" gradientTransform="matrix(0.6911 0.7228 -0.7228 0.6911 372.0449 66.7465)" gradientUnits="userSpaceOnUse">
			<stop  offset="6.060610e-03" style="stop-color:#F26522"/>
			<stop  offset="0.241" style="stop-color:#F15E22"/>
			<stop  offset="0.6044" style="stop-color:#F04A23"/>
			<stop  offset="1" style="stop-color:#ED2224"/>
		</radialGradient>
		<path class="st8" d="M82.9,49.6c-1.1,2-2.7,2.2-4,2.7c-3.2,1.2-1.4,3.9,1.2,3.3c3.2-0.8,6-4.3,7.6-8c0.8,5.3-2.9,10.6-6.4,12.5
			c-2.8,1.5-7.7,2.7-8.6,6.1c-0.7,2.7,1.9,5.2,3.8,2.4c1.4-2,2.6-5.3,6.2-6.7c-2.1,2.5-0.6,8.6-2.9,14.6c-1.9,5-9,11.5-21.9,5.5
			c2.4-4-10.9-17.8-0.5-27.7C64.4,47.6,79.5,52.1,82.9,49.6z"/>
		<g>
			<defs>
				<filter id="Adobe_OpacityMaskFilter" filterUnits="userSpaceOnUse" x="55.8" y="51.5" width="26.6" height="32.4">
					<feFlood  style="flood-color:white;flood-opacity:1" result="back"/>
					<feBlend  in="SourceGraphic" in2="back" mode="normal"/>
				</filter>
			</defs>
			<mask maskUnits="userSpaceOnUse" x="55.8" y="51.5" width="26.6" height="32.4" id="SVGID_2_">
				<g class="st9">
					
						<image style="overflow:visible;" width="128" height="153" xlink:href="C2005AB7B97BCA0D.jpg"  transform="matrix(0.24 0 0 0.24 53.7067 49.3067)">
					</image>
				</g>
			</mask>
			<g class="st10">
				<defs>
					<filter id="Adobe_OpacityMaskFilter_1_" filterUnits="userSpaceOnUse" x="55.8" y="51.5" width="26.6" height="32.4">
						<feFlood  style="flood-color:white;flood-opacity:1" result="back"/>
						<feBlend  in="SourceGraphic" in2="back" mode="normal"/>
					</filter>
				</defs>
				<mask maskUnits="userSpaceOnUse" x="55.8" y="51.5" width="26.6" height="32.4" id="SVGID_2_">
					<g class="st11">
						
							<image style="overflow:visible;" width="128" height="153" xlink:href="C2005AB7B97BCA00.jpg"  transform="matrix(0.24 0 0 0.24 53.7067 49.3067)">
						</image>
					</g>
				</mask>
				<g>
					<path class="st12" d="M59.2,81.2c1.6-2,0.7-4.9-0.7-8.2c-2.3-5.5-4.8-11.5,0.7-17.4c3.9-4.1,15.5-5,19.2-3.4
						c-2.1,1.1-3.8,2.7-3.6,3.5c0.6,2.5,5.9,0.7,7.7-0.8c-0.1,3.7-3.9,6.4-6.5,7.6c-1.6,0.7-5.3,2.7-5.4,5.3c0,2.8,3.3,4.3,5.1,2.6
						c1.8-1.7,2.3-3.5,4.5-4.8c-1.3,3,2.1,12.3-7,17.1c-4.2,2.2-11.8,1-13.7-0.2l-0.8-0.5L59.2,81.2z"/>
				</g>
			</g>
		</g>
		
			<radialGradient id="SVGID_3_" cx="-208.2348" cy="205.0037" r="29.8471" gradientTransform="matrix(0.6911 0.7228 -0.7228 0.6911 372.0449 66.7465)" gradientUnits="userSpaceOnUse">
			<stop  offset="0" style="stop-color:#FBAA19"/>
			<stop  offset="1" style="stop-color:#F26522"/>
		</radialGradient>
		<path class="st13" d="M59.3,81.2c4.5-5.6-7.8-14.8,1.2-24.3c3.4-3.6,11-4.8,15.9-4.3c-0.8,0.9-1.9,1.5-2.6,2.4
			c-1,1.4-0.2,2.4,1.4,2.7c1.5,0.3,5.2-0.5,5.8-1c-1.8,4.5-7.2,4.8-10.4,7.7c-3,2.8-0.6,8.7,4.3,7.6c2.6-0.6,2.5-3,4-3.8
			c-1.1,1.9,0.7,8.7-7,12.9C68,83.2,60.8,82.2,59.3,81.2z"/>
		<g>
			<defs>
				<filter id="Adobe_OpacityMaskFilter_2_" filterUnits="userSpaceOnUse" x="56.8" y="57.5" width="18.2" height="25.7">
					<feFlood  style="flood-color:white;flood-opacity:1" result="back"/>
					<feBlend  in="SourceGraphic" in2="back" mode="normal"/>
				</filter>
			</defs>
			<mask maskUnits="userSpaceOnUse" x="56.8" y="57.5" width="18.2" height="25.7" id="SVGID_4_">
				<g class="st14">
					
						<image style="overflow:visible;" width="94" height="125" xlink:href="C2005AB7B97BCA01.jpg"  transform="matrix(0.24 0 0 0.24 54.6667 55.3067)">
					</image>
				</g>
			</mask>
			<g class="st15">
				<path class="st16" d="M58.1,72.9c-0.3-0.7-0.5-1.5-0.8-2.3c-1.1-3.7-0.4-7.3,1.5-9.6c3.1-3.7,8.8-4.6,14.2-2.5
					c-11.7,7.1-5.4,17.5,2,15c0.2,4.8-7,13.3-16,7.9C59.6,79.9,60.2,79,58.1,72.9z"/>
			</g>
		</g>
		
			<radialGradient id="SVGID_5_" cx="-214.8069" cy="213.2356" r="23.4258" gradientTransform="matrix(0.6911 0.7228 -0.7228 0.6911 372.0449 66.7465)" gradientUnits="userSpaceOnUse">
			<stop  offset="0" style="stop-color:#F6EB16"/>
			<stop  offset="1" style="stop-color:#FBAA19"/>
		</radialGradient>
		<path class="st17" d="M59.3,81.2c2.2-2.8,0.3-6.4-1-10.5C55,60,66.2,58,71.5,58.6c-11,7.5-4.7,18.4,2.5,15.9
			C72.5,78.1,67.8,84.5,59.3,81.2z"/>
		<g>
			<defs>
				<filter id="Adobe_OpacityMaskFilter_3_" filterUnits="userSpaceOnUse" x="59.2" y="58.3" width="15.2" height="23.9">
					<feFlood  style="flood-color:white;flood-opacity:1" result="back"/>
					<feBlend  in="SourceGraphic" in2="back" mode="normal"/>
				</filter>
			</defs>
			<mask maskUnits="userSpaceOnUse" x="59.2" y="58.3" width="15.2" height="23.9" id="SVGID_6_">
				<g class="st18">
					
						<image style="overflow:visible;" width="81" height="117" xlink:href="C2005AB7B97BCA02.jpg"  transform="matrix(0.24 0 0 0.24 57.0667 56.2667)">
					</image>
				</g>
			</mask>
			<g class="st19">
				<path class="st20" d="M59.2,81.2c4.3-0.3,5.4-3.4,3.4-7.9c-4.5-10.2,3.9-14.5,9.9-15c-11.7,7.9-5.7,18.5,2,15.8
					C72.9,78.4,68.2,84.7,59.2,81.2z"/>
			</g>
		</g>
		
			<radialGradient id="SVGID_7_" cx="-211.4923" cy="213.2356" r="21.9604" gradientTransform="matrix(0.6911 0.7228 -0.7228 0.6911 372.0449 66.7465)" gradientUnits="userSpaceOnUse">
			<stop  offset="1.212120e-02" style="stop-color:#FCF6B7"/>
			<stop  offset="1" style="stop-color:#F6EB16"/>
		</radialGradient>
		<path class="st21" d="M59.3,81.2c5.2,0.4,7.1-3.5,5-7.7C60.2,65,67,59.9,71.5,58.6c-11,7.5-4.7,18.4,2.5,15.9
			C72.5,78.1,67.8,84.5,59.3,81.2z"/>
		<g>
			<defs>
				<filter id="Adobe_OpacityMaskFilter_4_" filterUnits="userSpaceOnUse" x="57.8" y="74.7" width="15.9" height="8.7">
					<feFlood  style="flood-color:white;flood-opacity:1" result="back"/>
					<feBlend  in="SourceGraphic" in2="back" mode="normal"/>
				</filter>
			</defs>
			<mask maskUnits="userSpaceOnUse" x="57.8" y="74.7" width="15.9" height="8.7" id="SVGID_8_">
				<g class="st22">
					
						<image style="overflow:visible;" width="84" height="54" xlink:href="C2005AB7B97BCA03.jpg"  transform="matrix(0.24 0 0 0.24 55.6267 72.5867)">
					</image>
				</g>
			</mask>
			<g class="st23">
				<path class="st24" d="M57.8,82.2c5.4,0.1,11.4-4.2,15.9-7.4C71.6,81.9,64.8,85.5,57.8,82.2z"/>
			</g>
		</g>
		<path class="st25" d="M57.8,82.2c5.5,2,12.7-3.3,15.6-7C70.4,82.2,64,85,57.8,82.2z"/>
		<g>
			<path class="st26" d="M57.8,112C29.3,112,6,88.8,6,60.2C6,31.7,29.3,8.4,57.8,8.4s51.8,23.2,51.8,51.8
				C109.6,88.8,86.4,112,57.8,112z M57.8,12.1c-26.5,0-48.1,21.6-48.1,48.1c0,26.5,21.6,48.1,48.1,48.1s48.1-21.6,48.1-48.1
				C105.9,33.7,84.3,12.1,57.8,12.1z"/>
		</g>
		<path class="st27" d="M71,21.2c18.1,0,33,14.5,33.4,32.5l-1,0.9l1-0.9c0,0.3,0,0.6,0,0.9c0,18.4-15,33.4-33.4,33.4
			c-18.4,0-33.4-15-33.4-33.4c0-0.8,0-1.5,0.1-2.2l1,0.9l-1-0.9C38.8,35,53.3,21.2,71,21.2z"/>
		<path class="st2" d="M44.9,40.5c0,0-11,2.8-10.3,10.4c3,2.3,3.1,2.3,3.1,2.3s4-9.6,6.9-9.9C47.1,40.4,45,40.5,44.9,40.5"/>
	</g>
</g>
</svg>
